<svg width="45" height="45" viewBox="0 0 45 45" fill="none" xmlns="http://www.w3.org/2000/svg">
<path d="M45 11.7892C45.0017 11.4931 44.9449 11.1995 44.833 10.9254C44.721 10.6513 44.556 10.402 44.3475 10.1918L34.8075 0.652489C34.5972 0.443971 34.3479 0.279002 34.0738 0.16704C33.7996 0.0550779 33.5061 -0.00167428 33.21 3.76043e-05C32.9139 -0.00167428 32.6203 0.0550779 32.3462 0.16704C32.0721 0.279002 31.8227 0.443971 31.6125 0.652489L25.245 7.01951L0.652536 31.6102C0.444004 31.8204 0.279022 32.0697 0.167052 32.3438C0.0550819 32.6179 -0.0016744 32.9115 3.76071e-05 33.2076V42.7468C3.76071e-05 43.3435 0.23709 43.9158 0.659046 44.3377C1.081 44.7596 1.6533 44.9967 2.25003 44.9967H11.79C12.1049 45.0138 12.4198 44.9646 12.7144 44.8522C13.0089 44.7398 13.2766 44.5667 13.5 44.3442L37.9575 19.7536L44.3475 13.499C44.5525 13.2807 44.7198 13.0298 44.8425 12.7566C44.8641 12.5773 44.8641 12.396 44.8425 12.2166C44.853 12.1119 44.853 12.0064 44.8425 11.9016L45 11.7892ZM10.8675 40.497H4.50003V34.13L26.8425 11.7892L33.21 18.1562L10.8675 40.497ZM36.3825 14.9839L30.015 8.61689L33.21 5.44463L39.555 11.7892L36.3825 14.9839Z" fill="black"/>
</svg>
